<svg 
    xmlns="http://www.w3.org/2000/svg" 
    version="1.1" 
    xmlns:xlink="http://www.w3.org/1999/xlink" 
    xmlns:svgjs="http://svgjs.dev/svgjs" 
    width="0" height="0" viewBox="400 300 200 400">
    <rect width="1000" height="1000" fill="#ffffff"></rect><g transform="matrix(0.7,0,0,0.7,149.57575757575756,302.67372325498866)"><svg viewBox="0 0 396 224" data-background-color="#282634" preserveAspectRatio="xMidYMid meet" height="565" width="1000" xmlns="http://www.w3.org/2000/svg" xmlns:xlink="http://www.w3.org/1999/xlink"><g id="tight-bounds" transform="matrix(1,0,0,1,0.2400000000000091,-0.2399848523829462)"><svg viewBox="0 0 395.52 224.4799697047659" height="224.4799697047659" width="395.52"><g><svg viewBox="0 0 395.52 224.4799697047659" height="224.4799697047659" width="395.52"><g><svg viewBox="0 0 395.52 224.4799697047659" height="224.4799697047659" width="395.52"><g id="textblocktransform"><svg viewBox="0 0 395.52 224.4799697047659" height="224.4799697047659" width="395.52" id="textblock"><g><rect width="395.52" height="156.77315408205556" fill="none" stroke-width="9.018103199999999" stroke="#000000" data-fill-palette-color="none" data-stroke-palette-color="tertiary"></rect><rect width="395.52" height="67.70681562271032" y="156.77315408205556" fill="#000000" data-fill-palette-color="tertiary"></rect></g><g><svg viewBox="0 0 395.52 156.77315408205556" height="156.77315408205556" width="395.52"><g transform="matrix(1,0,0,1,23.607599999999998,23.607600000000005)"><svg width="348.3048" viewBox="4.5 -37.75 120.64 37.95" height="109.55795408205555" data-palette-color="#ff4057"><path d="M13.5-1.35L4.5 0.05Q5.65-5.45 6.7-10.8L6.7-10.8Q7.15-13.05 7.6-15.5 8.05-17.95 8.47-20.33 8.9-22.7 9.22-24.93 9.55-27.15 9.8-29L9.8-29Q8.65-29.15 7.48-29.1 6.3-29.05 5.15-29.4L5.15-29.4Q5.2-30.2 5.2-31.25 5.2-32.3 5.25-33.35L5.25-33.35Q5.3-34.5 5.35-35.8L5.35-35.8Q6.65-35.7 7.95-35.65 9.25-35.6 10.55-35.6L10.55-35.6Q13.1-35.6 15.48-35.73 17.85-35.85 19.88-36.02 21.9-36.2 23.85-36.45L23.85-36.45 23.3-33.75Q23.05-32.6 22.83-31.4 22.6-30.2 22.4-29.35L22.4-29.35Q21.3-29.05 20.18-28.93 19.05-28.8 17.95-28.6L17.95-28.6Q17.6-26.9 17.2-24.83 16.8-22.75 16.43-20.53 16.05-18.3 15.7-16 15.35-13.7 15-11.6L15-11.6Q14.2-6.65 13.5-1.35L13.5-1.35ZM25.75-1Q25.3-1 24-0.88 22.7-0.75 21.3-0.58 19.9-0.4 18.77-0.25 17.65-0.1 17.55-0.05L17.55-0.05Q18.15-2.2 18.75-4.83 19.35-7.45 19.97-10.33 20.6-13.2 21.17-16.15 21.75-19.1 22.3-21.85L22.3-21.85Q23.55-28.25 24.75-35L24.75-35 32.55-36.25Q31.25-29.55 29.95-23.1L29.95-23.1Q29.4-20.35 28.82-17.4 28.25-14.45 27.72-11.55 27.2-8.65 26.67-5.93 26.15-3.2 25.75-1L25.75-1ZM34.59-0.85L26.34-0.3Q28.54-6.95 30.54-13.35L30.54-13.35Q31.39-16.05 32.3-19 33.2-21.95 34.09-24.85 34.99-27.75 35.77-30.45 36.55-33.15 37.14-35.45L37.14-35.45Q39.89-35.45 42.34-35.75 44.8-36.05 47.64-36.3L47.64-36.3Q47.5-35.2 47.32-33.83 47.14-32.45 46.92-30.95 46.7-29.45 46.45-27.85 46.2-26.25 45.84-23.75 45.5-21.25 44.89-17.5L44.89-17.5 45.55-17.5Q47-21.3 47.95-23.83 48.89-26.35 49.5-27.95 50.09-29.55 50.72-31.08 51.34-32.6 51.92-33.98 52.5-35.35 53-36.4L53-36.4Q54.25-36.5 55.34-36.65 56.45-36.8 57.55-36.98 58.64-37.15 59.77-37.33 60.9-37.5 62.24-37.75L62.24-37.75Q61.74-34.85 61.3-31.8 60.84-28.75 60.49-25.73 60.15-22.7 59.82-19.75 59.5-16.8 59.25-14.15L59.25-14.15Q58.64-7.95 58.2-2.05L58.2-2.05 49.5-0.5Q49.5-0.75 49.57-1.85 49.64-2.95 49.77-4.55 49.89-6.15 50.12-8.1 50.34-10.05 50.57-12 50.8-13.95 51.05-15.78 51.3-17.6 51.55-18.9L51.55-18.9 51.09-18.9Q50.39-16.8 49.55-14.48 48.7-12.15 47.82-9.75 46.95-7.35 46.09-5.05 45.25-2.75 44.59-0.65L44.59-0.65Q42.84-0.6 41.59-0.53 40.34-0.45 38.7-0.35L38.7-0.35 40.3-18.9 39.55-18.9Q39.45-18.25 39.05-16.73 38.64-15.2 38.12-13.23 37.59-11.25 36.99-9.13 36.39-7 35.87-5.18 35.34-3.35 34.99-2.18 34.64-1 34.59-0.85L34.59-0.85ZM81.39-12.55Q81.39-10.5 80.54-8.75 79.69-7 78.24-5.58 76.79-4.15 74.87-3.08 72.94-2 70.82-1.28 68.69-0.55 66.47-0.18 64.24 0.2 62.19 0.2L62.19 0.2Q60.34 0.2 58.74-0.1L58.74-0.1Q61.14-8.85 62.57-17.73 63.99-26.6 65.29-35.6L65.29-35.6Q67.89-36.15 70.69-36.58 73.49-37 76.49-37L76.49-37Q77.74-37 79.14-36.7 80.54-36.4 81.69-35.6 82.84-34.8 83.62-33.5 84.39-32.2 84.39-30.2L84.39-30.2Q84.39-28.3 83.77-26.65 83.14-25 82.17-23.65 81.19-22.3 79.94-21.33 78.69-20.35 77.39-19.85L77.39-19.85Q78.04-19.5 78.74-18.85 79.44-18.2 80.04-17.32 80.64-16.45 81.02-15.25 81.39-14.05 81.39-12.55L81.39-12.55ZM69.94-17.75Q69.74-16.55 69.57-15.63 69.39-14.7 69.24-13.85 69.09-13 68.92-12.08 68.74-11.15 68.54-9.9L68.54-9.9Q69.49-10 70.69-10.25 71.89-10.5 72.99-11.03 74.09-11.55 74.84-12.43 75.59-13.3 75.59-14.55L75.59-14.55Q75.59-15.45 75.12-16.05 74.64-16.65 73.92-17.05 73.19-17.45 72.34-17.63 71.49-17.8 70.74-17.8L70.74-17.8Q70.49-17.8 70.32-17.8 70.14-17.8 69.94-17.75L69.94-17.75ZM72.19-29.85Q72.09-29.3 71.97-28.55 71.84-27.8 71.69-26.98 71.54-26.15 71.37-25.35 71.19-24.55 71.09-23.95L71.09-23.95Q72.19-24.15 73.29-24.5 74.39-24.85 75.27-25.28 76.14-25.7 76.67-26.2 77.19-26.7 77.19-27.3L77.19-27.3Q77.19-28.05 76.74-28.53 76.29-29 75.57-29.3 74.84-29.6 74.07-29.73 73.29-29.85 72.69-29.85L72.69-29.85 72.19-29.85ZM88.49-2.05L80.39 0.05Q81.74-6.6 82.99-12.95L82.99-12.95Q83.44-15.65 83.99-18.57 84.54-21.5 85.02-24.38 85.49-27.25 85.92-29.93 86.34-32.6 86.59-34.8L86.59-34.8Q89.44-35.7 92.74-36.13 96.04-36.55 99.29-36.55L99.29-36.55Q101.24-36.55 102.52-36.1 103.79-35.65 104.52-34.83 105.24-34 105.54-32.9 105.84-31.8 105.84-30.45L105.84-30.45Q105.84-28.45 105.14-26.53 104.44-24.6 103.27-22.88 102.09-21.15 100.57-19.73 99.04-18.3 97.29-17.4L97.29-17.4Q98.19-15.4 99.22-13.03 100.24-10.65 101.14-8.5L101.14-8.5Q102.14-6 103.19-3.5L103.19-3.5 95.44-0.8Q94.44-4.25 93.64-7.3L93.64-7.3Q93.29-8.55 92.94-9.88 92.59-11.2 92.29-12.38 91.99-13.55 91.79-14.45 91.59-15.35 91.54-15.85L91.54-15.85 90.89-15.65Q90.59-14.05 90.17-11.75 89.74-9.45 89.39-7.3L89.39-7.3Q88.94-4.75 88.49-2.05L88.49-2.05ZM93.74-29.6L92.14-21.65Q93.09-21.75 94.47-22.45 95.84-23.15 97.09-24.13 98.34-25.1 99.24-26.15 100.14-27.2 100.14-28L100.14-28Q100.14-28.55 99.79-28.88 99.44-29.2 98.82-29.38 98.19-29.55 97.44-29.6 96.69-29.65 95.89-29.65L95.89-29.65Q95.34-29.65 94.77-29.63 94.19-29.6 93.74-29.6L93.74-29.6ZM118.94-2.45L102.79 0.05 109.34-35.5 125.14-36.85Q124.79-35.75 124.54-34.6L124.54-34.6Q124.29-33.65 124.06-32.63 123.84-31.6 123.69-30.8L123.69-30.8Q123.19-30.75 122.26-30.73 121.34-30.7 120.29-30.68 119.24-30.65 118.16-30.65 117.09-30.65 116.29-30.65L116.29-30.65 114.54-21.7Q116.09-21.8 117.44-21.85L117.44-21.85Q118.54-21.9 119.69-21.9 120.84-21.9 121.39-21.95L121.39-21.95Q121.19-20.55 121.01-19.2 120.84-17.85 120.59-16.45L120.59-16.45Q120.09-16.4 118.96-16.38 117.84-16.35 116.69-16.3L116.69-16.3Q115.39-16.25 113.84-16.2L113.84-16.2 112.14-7 119.44-8.15 118.94-2.45Z" opacity="1" transform="matrix(1,0,0,1,0,0)" fill="#000000" class="wordmark-text-0" data-fill-palette-color="primary" id="text-0"></path></svg></g></svg></g></svg></g></svg></g></svg></g><defs></defs></svg><rect width="395.52" height="224.4799697047659" fill="none" stroke="none" visibility="hidden"></rect></g></svg></g></svg>