<?xml version="1.0" encoding="utf-8"?>
<!-- Generator: Adobe Illustrator 25.0.1, SVG Export Plug-In . SVG Version: 6.00 Build 0)  -->
<svg version="1.0" id="Layer_1" xmlns="http://www.w3.org/2000/svg" xmlns:xlink="http://www.w3.org/1999/xlink" x="0px" y="0px"
	 viewBox="1950 875 180 675" style="enable-background:new 0 0 3491.6 2304;" xml:space="preserve">
<style type="text/css">
	.st0{fill:#222326;}
	.st1{fill:none;stroke:#222326;stroke-width:49.9424;}
</style>
<path class="st0" d="M1517.7,1288c-1.4-2.7-2.5-5.8-3.5-9.4c-1-3.5-1.8-7.3-2.4-11.2c-3.1,3.4-6.7,6.6-10.8,9.6
	c-4.1,3-8.6,5.6-13.7,8c-4.9,2.2-10.3,3.9-16.3,5.1c-6,1.4-12.4,2-19.4,2c-11.3,0-21.7-1.6-31.2-4.9c-9.4-3.3-17.5-7.8-24.3-13.7
	c-6.8-5.8-12.1-12.8-15.9-20.8c-3.8-8.2-5.7-17-5.7-26.5c0-23.3,8.6-41.2,25.9-53.8c17.4-12.8,43.3-19.2,77.7-19.2h31.6v-13.1
	c0-10.6-3.5-19-10.4-25.1c-6.9-6.3-16.9-9.4-30-9.4c-11.6,0-20,2.5-25.3,7.5c-5.3,4.9-8,11.5-8,19.8h-56.7c0-9.4,2-18.3,6.1-26.7
	c4.2-8.4,10.3-15.8,18.2-22.2c8-6.4,17.7-11.4,29.2-15.1c11.6-3.8,24.7-5.7,39.6-5.7c13.3,0,25.7,1.6,37.1,4.9
	c11.6,3.3,21.6,8.1,30,14.5c8.4,6.4,15,14.5,19.8,24.3c4.8,9.7,7.1,20.9,7.1,33.7v94.6c0,11.8,0.7,21.6,2.2,29.4
	c1.5,7.8,3.7,14.4,6.5,20v3.5H1517.7z M1463.6,1248.2c5.7,0,11-0.7,15.9-2c4.9-1.4,9.3-3.1,13.3-5.3c3.9-2.2,7.3-4.6,10.2-7.3
	c2.9-2.9,5.1-5.7,6.7-8.6V1187h-29c-8.8,0-16.4,0.9-22.6,2.7c-6.3,1.6-11.4,4-15.3,7.1c-3.9,3-6.9,6.7-8.8,11
	c-1.9,4.2-2.9,8.8-2.9,13.9c0,7.6,2.7,13.9,8,19C1444.6,1245.7,1452.8,1248.2,1463.6,1248.2z"/>
<path class="st0" d="M1789.2,1063.2c8.6,0,16.5,0.6,23.7,1.8c7.3,1.1,13.3,2.3,17.7,3.7l-8.4,56.5c-7.5-1.8-15.2-3.1-23-3.9
	c-7.8-1-15.2-1.4-22.2-1.4c-15.9,0-28.7,3.1-38.3,9.2c-9.5,6.1-16.7,14.9-21.4,26.3V1288h-56.7v-220.7h52.8l2.7,36.1
	c9-12.5,19.7-22.3,32.2-29.4C1760.7,1066.8,1774.4,1063.2,1789.2,1063.2z"/>
<path class="st0" d="M2022.8,1218.8l19.2-151.6h52l-39.6,220.7h-49.8l-29-140.3l-27.9,140.3h-49.8l-39.6-220.7h51.8l19.2,152.2
	l27.7-152.2h37.9L2022.8,1218.8z"/>
<path class="st0" d="M2239.6,1292.1c-17,0-32.4-2.8-46.3-8.4c-13.9-5.6-25.8-13.1-35.7-22.6c-9.9-9.7-17.6-20.9-23-33.9
	c-5.3-13.1-8-27-8-41.8v-8.2c0-16.9,2.7-32.2,8-46.1c5.3-14,12.7-26,22.2-36.1c9.5-10.1,20.8-17.9,33.9-23.5
	c13.1-5.6,27.3-8.4,42.6-8.4c15.9,0,30.1,2.7,42.4,8c12.5,5.2,23,12.5,31.6,22c8.7,9.5,15.3,21,19.8,34.5
	c4.5,13.3,6.7,28.1,6.7,44.3v24.1h-149.7c1.1,7.5,3.3,14.3,6.5,20.6c3.4,6.1,7.7,11.4,12.8,15.9c5.2,4.5,11.1,8,17.7,10.4
	c6.7,2.4,13.9,3.7,21.8,3.7c5.6,0,11.1-0.5,16.5-1.6c5.6-1.1,10.9-2.7,15.9-4.7c5-2.2,9.7-4.8,14.1-8c4.4-3.1,8.2-6.8,11.4-11
	l28.4,30.6c-3.5,5-8.2,10-13.9,14.9c-5.6,4.8-12.2,9-20,12.9c-7.6,3.7-16.1,6.7-25.5,9C2260.6,1290.9,2250.5,1292.1,2239.6,1292.1z
	 M2232.9,1109.1c-6.4,0-12.2,1.2-17.5,3.5c-5.3,2.2-10,5.4-14.1,9.6c-3.9,4.2-7.3,9.2-10,15.1c-2.7,5.8-4.8,12.4-6.1,19.6h93v-4.5
	c-0.3-6-1.4-11.6-3.5-16.9c-2-5.3-5-9.9-8.8-13.7c-3.8-3.9-8.5-7-14.1-9.2C2246.4,1110.3,2240.1,1109.1,2232.9,1109.1z"/>
<path class="st0" d="M2521.3,1288c-1.4-2.7-2.5-5.8-3.5-9.4c-0.9-3.5-1.8-7.3-2.4-11.2c-3.1,3.4-6.7,6.6-10.8,9.6
	c-4.1,3-8.6,5.6-13.7,8c-4.9,2.2-10.3,3.9-16.3,5.1c-6,1.4-12.4,2-19.4,2c-11.3,0-21.7-1.6-31.2-4.9c-9.4-3.3-17.5-7.8-24.3-13.7
	c-6.8-5.8-12.1-12.8-15.9-20.8c-3.8-8.2-5.7-17-5.7-26.5c0-23.3,8.6-41.2,25.9-53.8c17.4-12.8,43.3-19.2,77.7-19.2h31.6v-13.1
	c0-10.6-3.5-19-10.4-25.1c-6.9-6.3-16.9-9.4-30-9.4c-11.6,0-20,2.5-25.3,7.5c-5.3,4.9-8,11.5-8,19.8H2383c0-9.4,2-18.3,6.1-26.7
	c4.2-8.4,10.3-15.8,18.2-22.2c8-6.4,17.7-11.4,29.2-15.1c11.6-3.8,24.8-5.7,39.6-5.7c13.3,0,25.7,1.6,37.1,4.9
	c11.5,3.3,21.5,8.1,30,14.5c8.5,6.4,15,14.5,19.8,24.3c4.8,9.7,7.1,20.9,7.1,33.7v94.6c0,11.8,0.8,21.6,2.3,29.4
	c1.5,7.8,3.7,14.4,6.5,20v3.5H2521.3z M2467.2,1248.2c5.7,0,11-0.7,15.9-2c4.9-1.4,9.3-3.1,13.2-5.3c4-2.2,7.4-4.6,10.2-7.3
	c2.9-2.9,5.1-5.7,6.7-8.6V1187h-29c-8.8,0-16.4,0.9-22.7,2.7c-6.3,1.6-11.3,4-15.3,7.1c-4,3-6.9,6.7-8.8,11
	c-1.9,4.2-2.9,8.8-2.9,13.9c0,7.6,2.6,13.9,8,19C2448.2,1245.7,2456.4,1248.2,2467.2,1248.2z"/>
<path class="st0" d="M2728.1,1222.5l2.9,15.9l2.9-15.3l48.5-155.8h59.2l-83.8,220.7h-53.2l-84.2-220.7h59.2L2728.1,1222.5z"/>
<path class="st0" d="M2992.3,1292.1c-17,0-32.4-2.8-46.3-8.4c-13.9-5.6-25.8-13.1-35.7-22.6c-9.9-9.7-17.6-20.9-23.1-33.9
	c-5.3-13.1-8-27-8-41.8v-8.2c0-16.9,2.7-32.2,8-46.1c5.3-14,12.7-26,22.2-36.1c9.5-10.1,20.8-17.9,33.9-23.5
	c13.1-5.6,27.3-8.4,42.6-8.4c15.9,0,30,2.7,42.4,8c12.5,5.2,23.1,12.5,31.6,22c8.7,9.5,15.3,21,19.8,34.5
	c4.5,13.3,6.7,28.1,6.7,44.3v24.1h-149.7c1.1,7.5,3.3,14.3,6.5,20.6c3.4,6.1,7.7,11.4,12.8,15.9c5.2,4.5,11.1,8,17.8,10.4
	c6.7,2.4,13.9,3.7,21.8,3.7c5.6,0,11.1-0.5,16.5-1.6c5.6-1.1,10.9-2.7,15.9-4.7c5-2.2,9.7-4.8,14.1-8c4.4-3.1,8.2-6.8,11.4-11
	l28.3,30.6c-3.5,5-8.2,10-13.9,14.9c-5.6,4.8-12.2,9-20,12.9c-7.6,3.7-16.1,6.7-25.5,9C3013.3,1290.9,3003.2,1292.1,2992.3,1292.1z
	 M2985.6,1109.1c-6.4,0-12.2,1.2-17.5,3.5c-5.3,2.2-10,5.4-14.1,9.6c-3.9,4.2-7.3,9.2-10,15.1c-2.7,5.8-4.8,12.4-6.1,19.6h93v-4.5
	c-0.3-6-1.4-11.6-3.5-16.9c-2-5.3-5-9.9-8.8-13.7c-3.8-3.9-8.5-7-14.1-9.2C2999.1,1110.3,2992.7,1109.1,2985.6,1109.1z"/>
<circle class="st1" cx="738.9" cy="1192.5" r="292.9"/>
<path class="st0" d="M793.6,1298.3c-1.4-2.8-2.6-6.1-3.6-9.8c-1-3.7-1.8-7.6-2.6-11.7c-3.3,3.6-7,6.9-11.3,10
	c-4.3,3.1-9,5.9-14.3,8.3c-5.1,2.3-10.8,4.1-17.1,5.3c-6.3,1.4-13,2.1-20.3,2.1c-11.8,0-22.7-1.7-32.6-5.1
	c-9.8-3.4-18.3-8.2-25.4-14.3c-7.1-6.1-12.7-13.4-16.6-21.8c-4-8.5-6-17.8-6-27.7c0-24.3,9-43.1,27.1-56.3
	c18.2-13.4,45.3-20.1,81.3-20.1h33.1v-13.7c0-11.1-3.6-19.8-10.9-26.2c-7.3-6.5-17.7-9.8-31.4-9.8c-12.1,0-20.9,2.6-26.5,7.9
	c-5.5,5.1-8.3,12-8.3,20.7h-59.3c0-9.8,2.1-19.1,6.4-28c4.4-8.8,10.7-16.6,19-23.3c8.4-6.7,18.6-11.9,30.5-15.8
	c12.1-4,25.9-6,41.4-6c13.9,0,26.9,1.7,38.8,5.1c12.1,3.4,22.5,8.5,31.4,15.1c8.8,6.7,15.7,15.2,20.7,25.4c5,10.1,7.5,21.8,7.5,35.2
	v99c0,12.4,0.8,22.6,2.3,30.7c1.6,8.1,3.8,15.1,6.8,20.9v3.6H793.6z M737.1,1256.7c6,0,11.5-0.7,16.6-2.1c5.1-1.4,9.7-3.3,13.9-5.5
	c4.1-2.3,7.7-4.8,10.7-7.7c3-3,5.3-6,7-9v-39.7H755c-9.2,0-17.1,0.9-23.7,2.8c-6.5,1.7-11.9,4.2-16,7.5c-4.1,3.1-7.2,7-9.2,11.5
	c-2,4.4-3,9.2-3,14.5c0,8,2.8,14.6,8.3,19.8C717.2,1254.1,725.7,1256.7,737.1,1256.7z"/>
</svg>
